# xmcd
#
# Track frame offsets: 
#        150
#        13326
#        27662
#        49865
#        64471
#        79815
#        95780
#        116704
#        131251
#
# Disc length: 2034 seconds
#
# Revision: 0
# Processed by: cddbd v1.5.2PL0 Copyright (c) Steve Scherf et al.
# Submitted via: ExactAudioCopy v0.95a5
#
DISCID=8207f009
DTITLE=Eugene Smiley Sr - Legends
DYEAR=2006
DGENRE=Blues
TTITLE0=I'm The Only Man
TTITLE1=Straighten Up, Woman
TTITLE2=The Dream
TTITLE3=Love Lifted Me Up
TTITLE4=Time To Get Out Of Here
TTITLE5=You're Gonna Miss Me
TTITLE6=Love Sensation
TTITLE7=Holding On
TTITLE8=Voodoo Woman
EXTD=
EXTT0=
EXTT1=
EXTT2=
EXTT3=
EXTT4=
EXTT5=
EXTT6=
EXTT7=
EXTT8=
PLAYORDER=
